# AST/ASF file generated using VICON BodyLanguage
# -----------------------------------------------
:version 1.10
:name VICON
:units
  mass 1.0
  length 0.45
  angle deg
:documentation
   .ast/.asf automatically generated from VICON data using
   VICON BodyBuilder and BodyLanguage model FoxedUp or BRILLIANT.MOD
:root
   order TX TY TZ RX RY RZ
   axis XYZ
   position 0 0 0  
   orientation 0 -0 0 
:bonedata
  begin
     id 1 
     name lhipjoint
     direction 0.500677 -0.737119 0.453848 
     length 2.34727 
     axis 0 -0 0  XYZ
  end
  begin
     id 2 
     name lfemur
     direction 0.34202 -0.939693 0  
     length 7.53653  
     axis 0 -0 20  XYZ
    dof rx ry rz
    limits (-160.0 20.0)
           (-70.0 70.0)
           (-60.0 70.0)
  end
  begin
     id 3 
     name ltibia
     direction 0.34202 -0.939693 0   
     length 6.85572   
     axis 0 -0 20   XYZ
    dof rx
    limits (-10.0 170.0)
  end
  begin
     id 4 
     name lfoot
     direction 0.155313 -0.426718 0.890949   
     length 2.18324   
     axis -90 -1.13533e-015 20   XYZ
    dof rx rz
    limits (-45.0 90.0)
           (-70.0 20.0)
  end
  begin
     id 5 
     name ltoes
     direction 1.53474e-011 -4.21647e-011 1   
     length 1.06748   
     axis -90 -1.13533e-015 20   XYZ
    dof rx
    limits (-90.0 20.0)
  end
  begin
     id 6 
     name rhipjoint
     direction -0.632471 -0.659587 0.406111   
     length 2.62319  
     axis 0 -0 0  XYZ 
  end
  begin
     id 7 
     name rfemur
     direction -0.34202 -0.939693 0   
     length 7.21735   
     axis 0 -0 -20   XYZ
    dof rx ry rz
    limits (-160.0 20.0)
           (-70.0 70.0)
           (-70.0 60.0)
  end
  begin
     id 8 
     name rtibia
     direction -0.34202 -0.939693 0   
     length 7.02558   
     axis 0 -0 -20   XYZ
    dof rx
    limits (-10.0 170.0)
 end
 begin
     id 9 
     name rfoot
     direction -0.16057 -0.441164 0.882945   
     length 2.10014  
     axis -90 1.13533e-015 -20   XYZ
    dof rx rz
    limits (-45.0 90.0)
           (-20.0 70.0)
  end
  begin
     id 10 
     name rtoes
     direction -1.53553e-011 -4.2192e-011 1   
     length 1.02554   
     axis -90 1.13533e-015 -20   XYZ
    dof rx
    limits (-90.0 20.0)
  end
  begin
     id 11 
     name lowerback
     direction 0.0401429 0.998861 -0.0258085   
     length 1.80848   
     axis 0 -0 0   XYZ
    dof rx ry rz
    limits (-20.0 45.0)
           (-30.0 30.0)
           (-30.0 30.0)
  end
  begin
     id 12 
     name upperback
     direction -0.0130978 0.999914 -0.000352645   
     length 1.8116   
     axis 0 -0 0   XYZ
    dof rx ry rz
    limits (-20.0 45.0)
           (-30.0 30.0)
           (-30.0 30.0)
  end
  begin
     id 13 
     name thorax
     direction -0.0300198 0.999453 0.0138573   
     length 1.81778   
     axis 0 -0 0   XYZ
    dof rx ry rz
    limits (-20.0 45.0)
           (-30.0 30.0)
           (-30.0 30.0)
  end
  begin
     id 14 
     name lowerneck
     direction -0.0401726 0.999191 -0.00173647   
     length 2.10594   
     axis 0 -0 0   XYZ
    dof rx ry rz
    limits (-20.0 45.0)
           (-30.0 30.0)
           (-30.0 30.0)
  end
  begin
     id 15 
     name upperneck
     direction 0.0119835 0.998501 0.0534085   
     length 2.07325   
     axis 0 -0 0   XYZ
    dof rx ry rz
    limits (-20.0 45.0)
           (-30.0 30.0)
           (-30.0 30.0)
  end
  begin
     id 16
     name head
     direction 0.00628309 0.999826 0.0175921  
     length 2.15096  
     axis 0 -0 0   XYZ
    dof rx ry rz
    limits (-20.0 45.0)
           (-30.0 30.0)
           (-30.0 30.0)
  end
  begin
     id 17 
     name lclavicle
     direction 0.895501 0.429681 -0.115981  
     length 4.18092  
     axis 0 -0 0   XYZ
    dof ry rz
    limits (-20.0 10.0)
           (0.0 20.0)
  end
  begin
     id 18 
     name lhumerus
     direction 1 -4.48961e-011 -3.38433e-028   
     length 5.77237   
     axis 180 -30 -90   XYZ
    dof rx ry rz
    limits (-60.0 90.0)
           (-90.0 90.0)
           (-90.0 90.0)
  end
  begin
     id 19
     name lradius
     direction 1 -4.4901e-011 1.11983e-026   
     length 2.91878   
     axis 180 -30 -90   XYZ
    dof rx
    limits (-10.0 170.0)
  end
  begin
     id 20
     name lwrist
     direction 1 -4.48934e-011 1.88176e-026   
     length 1.45939   
     axis -1.23311e-014 90 90   XYZ
    dof ry
    limits (-180.0 0.0)
 end
  begin
     id 21 
     name lhand
     direction 1 -4.4895e-011 3.76352e-026   
     length 1.06566   
     axis -2.40147e-014 90 90   XYZ
    dof rx rz
    limits (-90.0 90.0)
           (-45.0 45.0)
  end
  begin
     id 22 
     name lfingers
     direction 1 -4.49005e-011 7.52705e-026   
     length 0.859162   
     axis -4.80295e-014 90 90   XYZ
    dof rx
    limits (0.0 90.0)
  end
  begin
     id 23
     name lthumb
     direction 0.707107 -6.34885e-011 0.707107   
     length 1.23359   
     axis -90 45 -9.86935e-015   XYZ
    dof rx rz
    limits (-45.0 45.0)
           (-45.0 45.0)
  end
  begin
     id 24 
     name rclavicle
     direction -0.91006 0.40451 -0.0903492   
     length 4.23293  
     axis 0 -0 0   XYZ 
    dof ry rz
    limits (-10.0 20.0)
           (-20.0 0.0)
  end
  begin
     id 25 
     name rhumerus
     direction -1 -4.4897e-011 1.7415e-027  
     length 5.49854   
     axis 180 30 90   XYZ
    dof rx ry rz
    limits (-90.0 60.0)
           (-90.0 90.0)
           (-90.0 90.0)
  end
  begin
     id 26 
     name rradius
     direction -1 -4.48963e-011 1.21259e-026   
     length 3.1186   
     axis 180 30 90   XYZ
    dof rx
    limits (-10.0 170.0)
  end
  begin
     id 27 
     name rwrist
     direction -1 -4.48967e-011 1.88176e-026   
     length 1.5593   
     axis -1.23311e-014 -90 -90   XYZ
    dof ry
    limits (-180.0 0.0)
  end
  begin
     id 28
     name rhand
     direction -1 -4.4895e-011 3.76352e-026   
     length 0.71207   
     axis -2.40147e-014 -90 -90   XYZ
    dof rx rz
    limits (-90.0 90.0)
           (-45.0 45.0)
  end
  begin
     id 29
     name rfingers
     direction -1 -4.49005e-011 7.52705e-026   
     length 0.574089   
     axis -4.80295e-014 -90 -90   XYZ
    dof rx
    limits (0.0 90.0)
  end
  begin
     id 30
     name rthumb
     direction -0.707107 -6.34982e-011 0.707107   
     length 0.824281   
     axis -90 -45 9.86935e-015   XYZ
    dof rx rz
    limits (-45.0 45.0)
           (-45.0 45.0)
  end
:hierarchy
  begin
    root lhipjoint rhipjoint lowerback
    lhipjoint lfemur
    lfemur ltibia
    ltibia lfoot
    lfoot ltoes
    rhipjoint rfemur
    rfemur rtibia
    rtibia rfoot
    rfoot rtoes
    lowerback upperback
    upperback thorax
    thorax lowerneck lclavicle rclavicle
    lowerneck upperneck
    upperneck head
    lclavicle lhumerus
    lhumerus lradius
    lradius lwrist
    lwrist lhand lthumb
    lhand lfingers
    rclavicle rhumerus
    rhumerus rradius
    rradius rwrist
    rwrist rhand rthumb
    rhand rfingers
  end

#!OML:ASF C:\ViconDB\ViconDB\414\Spring2016\042216\male.ASF
:FULLY-SPECIFIED
:DEGREES
1
root 2.18898 17.5784 9.2701 -178 71.2689 -179.361
lowerback -3.26777 -1.77165 3.06094
upperback -0.293641 -2.45611 -0.76455
thorax 1.36697 -1.20636 -2.6051
lowerneck 1.18562 11.1701 1.00765
upperneck 1.04382 15.1552 -7.84045
head 0.863875 7.60979 -2.49112
rclavicle 2.87679e-014 1.78906e-015
rhumerus -31.9052 -3.30082 -92.0899
rradius 27.2975
rwrist 29.567
rhand 12.5216 -19.224
rfingers 7.12502
rthumb 37.5139 -45.1538
lclavicle 2.87679e-014 1.78906e-015
lhumerus -36.5013 18.0182 84.9136
lradius 30.6693
lwrist -18.3364
lhand -3.39522 15.0497
lfingers 7.12502
lthumb 22.3346 43.7788
rfemur 3.35881 6.14611 16.4367
rtibia 4.86274
rfoot -10.881 -5.36031
rtoes -7.42145
lfemur -4.73987 -8.51724 -15.343
ltibia 15.4661
lfoot -18.6189 15.6154
ltoes -15.6464
2
root 2.18963 17.5785 9.27226 -178.059 71.269 -179.441
lowerback -3.26236 -1.79162 3.00219
upperback -0.29573 -2.48058 -0.752297
thorax 1.36318 -1.21903 -2.56028
lowerneck 1.2102 11.1957 0.984454
upperneck 1.01301 15.1874 -7.85069
head 0.850542 7.62716 -2.49268
rclavicle 4.4023e-014 -1.59028e-015
rhumerus -31.8818 -3.4382 -92.0161
rradius 27.2507
rwrist 29.7806
rhand 12.5747 -19.1069
rfingers 7.12502
rthumb 37.5641 -45.0234
lclavicle 4.4023e-014 -1.59028e-015
lhumerus -36.5129 18.1415 84.8876
lradius 30.5876
lwrist -18.488
lhand -3.34703 14.9152
lfingers 7.12502
lthumb 22.3809 43.6387
rfemur 3.31427 6.1446 16.4178
rtibia 4.91338
rfoot -10.9257 -5.36498
rtoes -7.43066
lfemur -4.74428 -8.50019 -15.3601
ltibia 15.4425
lfoot -18.5466 15.6003
ltoes -15.7798
3
root 2.19101 17.5795 9.2746 -178.024 71.2737 -179.42
lowerback -3.25508 -1.78454 3.02377
upperback -0.296982 -2.47114 -0.78729
thorax 1.35598 -1.21428 -2.60767
lowerneck 1.23999 11.1985 1.05634
upperneck 0.977539 15.1873 -7.84496
head 0.839509 7.62815 -2.50533
rclavicle -2.39085e-015 -9.93923e-016
rhumerus -31.8907 -3.52297 -92.0513
rradius 27.266
rwrist 29.8389
rhand 12.6133 -19.0734
rfingers 7.12502
rthumb 37.6005 -44.9803
lclavicle -2.39085e-015 -9.93923e-016
lhumerus -36.536 18.0448 84.8642
lradius 30.5671
lwrist -18.4505
lhand -3.40751 14.9909
lfingers 7.12502
lthumb 22.3228 43.7214
rfemur 3.27563 6.14865 16.433
rtibia 4.95021
rfoot -10.9369 -5.36357
rtoes -7.48323
lfemur -4.75337 -8.53847 -15.3429
ltibia 15.4257
lfoot -18.5632 15.6477
ltoes -15.7674
4
root 2.19264 17.5801 9.27665 -177.972 71.2746 -179.382
lowerback -3.23459 -1.79593 2.99732
upperback -0.307391 -2.48496 -0.763344
thorax 1.33508 -1.22186 -2.56774
lowerneck 1.26149 11.2122 1.00462
upperneck 0.943932 15.2015 -7.8236
head 0.819818 7.63639 -2.4929
rclavicle -8.69605e-015 -5.36719e-015
rhumerus -31.9132 -3.45657 -92.0455
rradius 27.275
rwrist 29.8142
rhand 12.6497 -19.0332
rfingers 7.12502
rthumb 37.6349 -44.9308
lclavicle -8.69605e-015 -5.36719e-015
lhumerus -36.5879 18.0848 84.8749
lradius 30.5726
lwrist -18.5051
lhand -3.49529 15.0341
lfingers 7.12502
lthumb 22.2386 43.7746
rfemur 3.24073 6.14933 16.4617
rtibia 4.99688
rfoot -10.9484 -5.32468
rtoes -7.32083
lfemur -4.75983 -8.47157 -15.3155
ltibia 15.4067
lfoot -18.5242 15.5868
ltoes -15.8014
5
root 2.19394 17.5814 9.2778 -177.924 71.2676 -179.359
lowerback -3.24471 -1.80444 2.99384
upperback -0.307797 -2.49668 -0.749177
thorax 1.34033 -1.22766 -2.55205
lowerneck 1.29132 11.2324 1.01556
upperneck 0.910189 15.2288 -7.88366
head 0.811628 7.65187 -2.51598
rclavicle 3.71409e-014 2.38542e-015
rhumerus -31.9259 -3.4163 -92.044
rradius 27.3023
rwrist 29.7896
rhand 12.6699 -19.1126
rfingers 7.12502
rthumb 37.6541 -45.0052
lclavicle 3.71409e-014 2.38542e-015
lhumerus -36.6177 18.3992 84.774
lradius 30.507
lwrist -18.7454
lhand -3.52191 14.9466
lfingers 7.12502
lthumb 22.213 43.6902
rfemur 3.20354 6.14107 16.4771
rtibia 5.02291
rfoot -10.9574 -5.29439
rtoes -7.41792
lfemur -4.78453 -8.55621 -15.299
ltibia 15.3972
lfoot -18.5564 15.6553
ltoes -15.5898
6
root 2.19532 17.5812 9.27947 -177.895 71.2516 -179.331
lowerback -3.23226 -1.8069 3.00657
upperback -0.297784 -2.50012 -0.758351
thorax 1.34247 -1.22918 -2.56849
lowerneck 1.28288 11.2318 1.03827
upperneck 0.86385 15.2238 -7.88132
head 0.799659 7.64995 -2.51998
rclavicle -6.35645e-015 1.59028e-015
rhumerus -31.9275 -3.40722 -92.0391
rradius 27.3137
rwrist 29.794
rhand 12.6556 -19.0146
rfingers 7.12502
rthumb 37.6405 -44.9107
lclavicle -6.35645e-015 1.59028e-015
lhumerus -36.613 18.4038 84.7764
lradius 30.4937
lwrist -18.7217
lhand -3.5867 15.066
lfingers 7.12502
lthumb 22.1508 43.817
rfemur 3.18859 6.12555 16.5006
rtibia 5.05961
rfoot -10.9755 -5.31571
rtoes -7.37825
lfemur -4.77816 -8.5665 -15.2832
ltibia 15.3857
lfoot -18.544 15.6662
ltoes -15.6347
7
root 2.19705 17.5806 9.28194 -177.89 71.2592 -179.339
lowerback -3.23015 -1.81576 2.97023
upperback -0.297518 -2.51093 -0.735572
thorax 1.34343 -1.2348 -2.52506
lowerneck 1.29376 11.2788 1.00881
upperneck 0.944716 15.2949 -7.90092
head 0.826479 7.68434 -2.51772
rclavicle -1.70652e-014 -2.5842e-015
rhumerus -31.9281 -3.42733 -91.9882
rradius 27.3341
rwrist 29.8082
rhand 12.7762 -19.0257
rfingers 7.12502
rthumb 37.7545 -44.8913
lclavicle -1.70652e-014 -2.5842e-015
lhumerus -36.6024 18.2459 84.9026
lradius 30.5156
lwrist -18.5394
lhand -3.63616 14.9637
lfingers 7.12502
lthumb 22.1033 43.7204
rfemur 3.15954 6.13239 16.5128
rtibia 5.09981
rfoot -11.001 -5.31837
rtoes -7.27452
lfemur -4.77643 -8.60317 -15.2767
ltibia 15.3712
lfoot -18.5287 15.7001
ltoes -15.6246
